<?xml version="1.0" encoding="utf-8"?>
<!-- Generator: Adobe Illustrator 21.0.0, SVG Export Plug-In . SVG Version: 6.00 Build 0)  -->
<svg version="1.1" id="Layer_1" xmlns="http://www.w3.org/2000/svg" xmlns:xlink="http://www.w3.org/1999/xlink" x="0px" y="0px"
	 viewBox="0 0 500 500" style="enable-background:new 0 0 500 500;" xml:space="preserve">
<path d="M449,55v47C403.3,40.7,330.1,1.2,247.6,2C111.8,3.3,1.8,114.7,2,250.4C2.2,387.2,113.2,498,250,498
	c84.4,0,158.9-42.2,203.7-106.5l-15-10.6C397.5,439.6,329.2,478,252,478C126.2,478,24.2,376.1,24,250.4
	C23.8,125.8,124.7,23.5,249.3,22c75.6-0.9,142.9,35.1,185,91H391v17h58h0.6c0.9,0.1,1.9,0.1,2.8,0h6.3c4,0,7.3-3.3,7.3-7.3V113V55
	H449z"/>
</svg>
